{"asset":{"version":"2.0","generator":"Blockbench 5.0.7 glTF exporter"},"scenes":[{"nodes":[0,1,2,3,4,5,6,7,8],"name":"blockbench_export"}],"scene":0,"nodes":[{"translation":[0,0.3125,-0.0625],"name":"car_body","mesh":0},{"rotation":[0,0,0.7071067811865475,0.7071067811865476],"translation":[-0.421875,0.15625,-0.681640625],"name":"front_left_wheel","mesh":1},{"rotation":[0,0,0.7071067811865475,0.7071067811865476],"translation":[-0.421875,0.15625,0.619140625],"name":"rear_left_wheel","mesh":2},{"rotation":[0,0,-0.7071067811865475,0.7071067811865476],"translation":[0.421875,0.15625,-0.681640625],"name":"front_right_wheel","mesh":3},{"rotation":[0,0,-0.7071067811865475,0.7071067811865476],"translation":[0.421875,0.15625,0.619140625],"name":"rear_right_wheel","mesh":4},{"rotation":[0,0.10886687485196457,0,0.9940563382223196],"translation":[-0.4375,0.4609375,-0.0859375],"name":"left_sidemirror","mesh":5},{"rotation":[0,-0.10886687485196457,0,0.9940563382223196],"translation":[0.4375,0.4609375,-0.0859375],"name":"right_sidemirror","mesh":6},{"rotation":[0.7071067811865475,0,0,0.7071067811865476],"translation":[0.3203125,0.09375,1.015625],"name":"right_exhaust","mesh":7},{"rotation":[0.7071067811865475,0,0,0.7071067811865476],"translation":[-0.3203125,0.09375,1.015625],"name":"left_exhaust","mesh":8}],"bufferViews":[{"buffer":0,"byteOffset":0,"byteLength":9984,"target":34962,"byteStride":12},{"buffer":0,"byteOffset":9984,"byteLength":9984,"target":34962,"byteStride":12},{"buffer":0,"byteOffset":19968,"byteLength":6656,"target":34962,"byteStride":8},{"buffer":0,"byteOffset":26624,"byteLength":2400,"target":34963},{"buffer":0,"byteOffset":29024,"byteLength":3456,"target":34962,"byteStride":12},{"buffer":0,"byteOffset":32480,"byteLength":3456,"target":34962,"byteStride":12},{"buffer":0,"byteOffset":35936,"byteLength":2304,"target":34962,"byteStride":8},{"buffer":0,"byteOffset":38240,"byteLength":768,"target":34963},{"buffer":0,"byteOffset":39008,"byteLength":3456,"target":34962,"byteStride":12},{"buffer":0,"byteOffset":42464,"byteLength":3456,"target":34962,"byteStride":12},{"buffer":0,"byteOffset":45920,"byteLength":2304,"target":34962,"byteStride":8},{"buffer":0,"byteOffset":48224,"byteLength":768,"target":34963},{"buffer":0,"byteOffset":48992,"byteLength":3456,"target":34962,"byteStride":12},{"buffer":0,"byteOffset":52448,"byteLength":3456,"target":34962,"byteStride":12},{"buffer":0,"byteOffset":55904,"byteLength":2304,"target":34962,"byteStride":8},{"buffer":0,"byteOffset":58208,"byteLength":768,"target":34963},{"buffer":0,"byteOffset":58976,"byteLength":3456,"target":34962,"byteStride":12},{"buffer":0,"byteOffset":62432,"byteLength":3456,"target":34962,"byteStride":12},{"buffer":0,"byteOffset":65888,"byteLength":2304,"target":34962,"byteStride":8},{"buffer":0,"byteOffset":68192,"byteLength":768,"target":34963},{"buffer":0,"byteOffset":68960,"byteLength":288,"target":34962,"byteStride":12},{"buffer":0,"byteOffset":69248,"byteLength":288,"target":34962,"byteStride":12},{"buffer":0,"byteOffset":69536,"byteLength":192,"target":34962,"byteStride":8},{"buffer":0,"byteOffset":69728,"byteLength":72,"target":34963},{"buffer":0,"byteOffset":69800,"byteLength":288,"target":34962,"byteStride":12},{"buffer":0,"byteOffset":70088,"byteLength":288,"target":34962,"byteStride":12},{"buffer":0,"byteOffset":70376,"byteLength":192,"target":34962,"byteStride":8},{"buffer":0,"byteOffset":70568,"byteLength":72,"target":34963},{"buffer":0,"byteOffset":70640,"byteLength":1152,"target":34962,"byteStride":12},{"buffer":0,"byteOffset":71792,"byteLength":1152,"target":34962,"byteStride":12},{"buffer":0,"byteOffset":72944,"byteLength":768,"target":34962,"byteStride":8},{"buffer":0,"byteOffset":73712,"byteLength":288,"target":34963},{"buffer":0,"byteOffset":74000,"byteLength":1152,"target":34962,"byteStride":12},{"buffer":0,"byteOffset":75152,"byteLength":1152,"target":34962,"byteStride":12},{"buffer":0,"byteOffset":76304,"byteLength":768,"target":34962,"byteStride":8},{"buffer":0,"byteOffset":77072,"byteLength":288,"target":34963}],"buffers":[{"byteLength":77360,"uri":"data:application/octet-stream;base64,"}],"accessors":[{"bufferView":0,"componentType":5126,"count":832,"max":[0.5,0.3125,1.2109375],"min":[-0.5,-0.25,-1],"type":"VEC3"},{"bufferView":1,"componentType":5126,"count":832,"max":[1,1,1],"min":[-1,-1,-1],"type":"VEC3"},{"bufferView":2,"componentType":5126,"count":832,"max":[0.6656492948532104,0.9876828193664551],"min":[0,0],"type":"VEC2"},{"bufferView":3,"componentType":5123,"count":1200,"max":[831],"min":[0],"type":"SCALAR"},{"bufferView":4,"componentType":5126,"count":288,"max":[0.171875,0.078125,0.171875],"min":[-0.171875,-0.046875,-0.171875],"type":"VEC3"},{"bufferView":5,"componentType":5126,"count":288,"max":[1,1,1],"min":[-1,-1,-1],"type":"VEC3"},{"bufferView":6,"componentType":5126,"count":288,"max":[0.22213515639305115,0.27344030141830444],"min":[0.00800624955445528,0.0779227614402771],"type":"VEC2"},{"bufferView":7,"componentType":5123,"count":384,"max":[287],"min":[0],"type":"SCALAR"},{"bufferView":8,"componentType":5126,"count":288,"max":[0.171875,0.078125,0.171875],"min":[-0.171875,-0.078125,-0.171875],"type":"VEC3"},{"bufferView":9,"componentType":5126,"count":288,"max":[1,1,1],"min":[-1,-1,-1],"type":"VEC3"},{"bufferView":10,"componentType":5126,"count":288,"max":[0.2223304659128189,0.27350813150405884],"min":[0.008014765568077564,0.07792139053344727],"type":"VEC2"},{"bufferView":11,"componentType":5123,"count":384,"max":[287],"min":[0],"type":"SCALAR"},{"bufferView":12,"componentType":5126,"count":288,"max":[0.171875,0.078125,0.171875],"min":[-0.171875,-0.046875,-0.171875],"type":"VEC3"},{"bufferView":13,"componentType":5126,"count":288,"max":[1,1,1],"min":[-1,-1,-1],"type":"VEC3"},{"bufferView":14,"componentType":5126,"count":288,"max":[0.22213515639305115,0.2736356258392334],"min":[0.00800624955445528,0.07811802625656128],"type":"VEC2"},{"bufferView":15,"componentType":5123,"count":384,"max":[287],"min":[0],"type":"SCALAR"},{"bufferView":16,"componentType":5126,"count":288,"max":[0.171875,0.078125,0.171875],"min":[-0.171875,-0.078125,-0.171875],"type":"VEC3"},{"bufferView":17,"componentType":5126,"count":288,"max":[1,1,1],"min":[-1,-1,-1],"type":"VEC3"},{"bufferView":18,"componentType":5126,"count":288,"max":[0.22213515639305115,0.27363377809524536],"min":[0.00800624955445528,0.07811671495437622],"type":"VEC2"},{"bufferView":19,"componentType":5123,"count":384,"max":[287],"min":[0],"type":"SCALAR"},{"bufferView":20,"componentType":5126,"count":24,"max":[0.0625,0.0234375,0],"min":[-0.0625,-0.0234375,-0.0390625],"type":"VEC3"},{"bufferView":21,"componentType":5126,"count":24,"max":[0.8320503234863281,1,1],"min":[-1,-1,-0.9635179042816162],"type":"VEC3"},{"bufferView":22,"componentType":5126,"count":24,"max":[0.12482515722513199,0.03129088878631592],"min":[0.007947656325995922,0.004235029220581055],"type":"VEC2"},{"bufferView":23,"componentType":5123,"count":36,"max":[23],"min":[0],"type":"SCALAR"},{"bufferView":24,"componentType":5126,"count":24,"max":[0.0625,0.0234375,0],"min":[-0.0625,-0.0234375,-0.0390625],"type":"VEC3"},{"bufferView":25,"componentType":5126,"count":24,"max":[1,1,1],"min":[-0.8320503234863281,-1,-0.9635179042816162],"type":"VEC3"},{"bufferView":26,"componentType":5126,"count":24,"max":[0.12483523786067963,0.031095564365386963],"min":[0.007803984452039003,0.004101574420928955],"type":"VEC2"},{"bufferView":27,"componentType":5123,"count":36,"max":[23],"min":[0],"type":"SCALAR"},{"bufferView":28,"componentType":5126,"count":96,"max":[0.03125,0.0625,0.03125],"min":[-0.03125,0,-0.03125],"type":"VEC3"},{"bufferView":29,"componentType":5126,"count":96,"max":[1,1,1],"min":[-1,0,-1],"type":"VEC3"},{"bufferView":30,"componentType":5126,"count":96,"max":[0.10046515613794327,0.07029014825820923],"min":[0.007808281108736992,0.03905826807022095],"type":"VEC2"},{"bufferView":31,"componentType":5123,"count":144,"max":[95],"min":[0],"type":"SCALAR"},{"bufferView":32,"componentType":5126,"count":96,"max":[0.03125,0.0625,0.03125],"min":[-0.03125,0,-0.03125],"type":"VEC3"},{"bufferView":33,"componentType":5126,"count":96,"max":[1,1,1],"min":[-1,0,-1],"type":"VEC3"},{"bufferView":34,"componentType":5126,"count":96,"max":[0.10046515613794327,0.07029014825820923],"min":[0.007808281108736992,0.03905826807022095],"type":"VEC2"},{"bufferView":35,"componentType":5123,"count":144,"max":[95],"min":[0],"type":"SCALAR"}],"materials":[{"pbrMetallicRoughness":{"metallicFactor":0,"roughnessFactor":1,"baseColorTexture":{"index":0}},"alphaMode":"MASK","alphaCutoff":0.05,"doubleSided":true}],"textures":[{"sampler":0,"source":0,"name":"racecar.png"}],"samplers":[{"magFilter":9728,"minFilter":9728,"wrapS":33071,"wrapT":33071}],"images":[{"mimeType":"image/png","uri":"data:image/png;base64,"}],"meshes":[{"primitives":[{"mode":4,"attributes":{"POSITION":0,"NORMAL":1,"TEXCOORD_0":2},"indices":3,"material":0}]},{"primitives":[{"mode":4,"attributes":{"POSITION":4,"NORMAL":5,"TEXCOORD_0":6},"indices":7,"material":0}]},{"primitives":[{"mode":4,"attributes":{"POSITION":8,"NORMAL":9,"TEXCOORD_0":10},"indices":11,"material":0}]},{"primitives":[{"mode":4,"attributes":{"POSITION":12,"NORMAL":13,"TEXCOORD_0":14},"indices":15,"material":0}]},{"primitives":[{"mode":4,"attributes":{"POSITION":16,"NORMAL":17,"TEXCOORD_0":18},"indices":19,"material":0}]},{"primitives":[{"mode":4,"attributes":{"POSITION":20,"NORMAL":21,"TEXCOORD_0":22},"indices":23,"material":0}]},{"primitives":[{"mode":4,"attributes":{"POSITION":24,"NORMAL":25,"TEXCOORD_0":26},"indices":27,"material":0}]},{"primitives":[{"mode":4,"attributes":{"POSITION":28,"NORMAL":29,"TEXCOORD_0":30},"indices":31,"material":0}]},{"primitives":[{"mode":4,"attributes":{"POSITION":32,"NORMAL":33,"TEXCOORD_0":34},"indices":35,"material":0}]}]}